<svg data-v-6805eed4="" version="1.0" xmlns="http://www.w3.org/2000/svg" xmlns:xlink="http://www.w3.org/1999/xlink" width="100%" height="100%" viewBox="0 0 340.000000 250.000000" preserveAspectRatio="xMidYMid meet" color-interpolation-filters="sRGB" style="margin: auto;">
<g data-v-6805eed4="" fill="#242521" class="bordersvg b-d1" transform="translate(81.68000030517578,65.6555404663086)">
<polyline stroke="#242521" stroke-width="3" fill-opacity="0" fill="#242521" points="88.31999969482422,20 88.31999969482422,10 0,0 0,118.68891906738281 88.31999969482422,108.68891906738281 88.31999969482422,98.68891906738281">
</polyline>
<g transform="translate(0,20)">
<g transform="translate(10,3)">
<g transform="scale(1)">
<path d="M2.08 0L1.76-6.63 6.5-7.93 6.5-32.83Q6.5-34.52 6.24-35.07 5.98-35.62 4.88-36.08L4.88-36.08 1.63-37.96 1.82-43.81 37.12-43.81Q37.57-36.98 37.57-30.48L37.57-30.48 32.76-30.16 28.14-35.88 18.33-36.14 18.33-24.57 32.18-25.8 32.18-15.79 18.33-17.29 18.33-10.53Q18.33-8.97 18.56-8.52 18.79-8.06 19.76-7.61L19.76-7.61 23.66-5.27 23.46 0 2.08 0ZM61.56 0.91Q50.77 0.91 45.47-4.55 40.17-10.01 40.17-21.13L40.17-21.13Q40.17-28.34 42.84-33.64 45.5-38.94 50.44-41.8 55.38-44.66 62.2-44.66L62.2-44.66Q83.92-44.66 83.92-22.49L83.92-22.49Q83.92-15.21 81.25-9.95 78.59-4.68 73.55-1.89 68.51 0.91 61.56 0.91L61.56 0.91ZM62.92-8.06Q66.63-8.06 70-9.95L70-9.95Q70.72-11.96 71.11-14.98 71.5-18 71.5-20.93L71.5-20.93Q71.5-28.14 68.8-31.85 66.11-35.55 60.91-35.55L60.91-35.55Q57.2-35.55 53.76-34.19L53.76-34.19Q53.04-32.95 52.65-30.13 52.26-27.3 52.26-23.66L52.26-23.66Q52.26-16.12 54.99-12.09 57.72-8.06 62.92-8.06L62.92-8.06ZM102.11 0.78Q94.97 0.78 87.62-1.43L87.62-1.43Q87.94-7.87 88.66-13.39L88.66-13.39 93.66-14.37 96.91-8.84Q100.81-7.48 103.8-7.48L103.8-7.48Q104.84-7.48 108.22-8.06L108.22-8.06Q108.35-9.36 108.35-9.81L108.35-9.81Q108.35-11.38 107.83-12.19 107.31-13 105.56-14.01 103.8-15.02 99.25-17.03L99.25-17.03Q93.66-19.76 91.19-22.91 88.72-26.07 88.72-30.36L88.72-30.36Q88.72-37.05 93.27-40.82 97.83-44.59 105.75-44.59L105.75-44.59Q109.59-44.59 113.39-43.84 117.19-43.09 120.06-41.8L120.06-41.8Q119.92-38.16 119.47-32.76L119.47-32.76 119.28-29.96 114.53-29.25 109.59-35.55Q107.25-36.27 103.74-36.27L103.74-36.27Q101.53-36.27 100.42-35.88L100.42-35.88Q100.1-34.58 100.1-33.87L100.1-33.87Q100.1-32.44 100.81-31.36 101.53-30.29 103.35-29.15 105.17-28.02 108.75-26.32L108.75-26.32Q113.94-23.86 116.61-21.97 119.28-20.09 120.35-18.04 121.42-15.99 121.42-13.07L121.42-13.07Q121.42-6.63 116.28-2.93 111.15 0.78 102.11 0.78L102.11 0.78ZM138.97 0.78Q131.82 0.78 124.47-1.43L124.47-1.43Q124.8-7.87 125.51-13.39L125.51-13.39 130.52-14.37 133.77-8.84Q137.67-7.48 140.66-7.48L140.66-7.48Q141.7-7.48 145.08-8.06L145.08-8.06Q145.21-9.36 145.21-9.81L145.21-9.81Q145.21-11.38 144.69-12.19 144.17-13 142.41-14.01 140.66-15.02 136.11-17.03L136.11-17.03Q130.52-19.76 128.05-22.91 125.58-26.07 125.58-30.36L125.58-30.36Q125.58-37.05 130.13-40.82 134.68-44.59 142.61-44.59L142.61-44.59Q146.44-44.59 150.25-43.84 154.05-43.09 156.91-41.8L156.91-41.8Q156.78-38.16 156.32-32.76L156.32-32.76 156.13-29.96 151.38-29.25 146.44-35.55Q144.1-36.27 140.59-36.27L140.59-36.27Q138.38-36.27 137.28-35.88L137.28-35.88Q136.95-34.58 136.95-33.87L136.95-33.87Q136.95-32.44 137.67-31.36 138.38-30.29 140.2-29.15 142.02-28.02 145.6-26.32L145.6-26.32Q150.8-23.86 153.46-21.97 156.13-20.09 157.2-18.04 158.27-15.99 158.27-13.07L158.27-13.07Q158.27-6.63 153.14-2.93 148 0.78 138.97 0.78L138.97 0.78Z" transform="translate(-1.6299999952316284, 44.65999984741211)">
</path>
</g>
 <g data-gra="path-name-1" fill="#242521" transform="translate(0,48.56999969482422)">
<g transform="scale(0.99051)">
<path d="M1.09 0L0.92-3.47 3.41-4.15 3.41-17.2Q3.41-18.08 3.27-18.37 3.13-18.66 2.55-18.9L2.55-18.9 0.85-19.89 0.95-22.95 19.44-22.95Q19.68-19.38 19.68-15.97L19.68-15.97 17.16-15.8 14.74-18.8 9.6-18.93 9.6-12.87 16.86-13.52 16.86-8.27 9.6-9.06 9.6-5.52Q9.6-4.7 9.72-4.46 9.84-4.22 10.35-3.98L10.35-3.98 12.39-2.76 12.29 0 1.09 0ZM33.1 0.44Q28.09 0.44 25.76-2.2 23.43-4.84 23.43-10.49L23.43-10.49 23.43-17.2Q23.43-18.08 23.31-18.37 23.19-18.66 22.64-18.9L22.64-18.9 21.55-19.55 21.66-22.95 32.28-22.95 32.45-19.58 29.62-18.8 29.62-11.82Q29.62-8.27 30.65-6.23 31.67-4.19 34.15-4.19L34.15-4.19Q34.97-4.19 35.74-4.43 36.5-4.67 37.05-5.07L37.05-5.07Q37.39-5.86 37.52-7.17 37.66-8.48 37.66-10.69L37.66-10.69 37.66-17.2Q37.66-18.08 37.52-18.37 37.39-18.66 36.81-18.9L36.81-18.9 35.14-19.85 35.31-22.95 45.42-22.95 45.6-19.27 43.82-18.8 43.82-11.1Q43.82-5.62 41.02-2.59 38.21 0.44 33.1 0.44L33.1 0.44ZM65.21 0.99L53.32-14.51 53.9-5.58Q53.94-4.8 54.07-4.56 54.21-4.32 54.69-4.05L54.69-4.05 56.46-2.86 56.32 0 47.47 0 47.3-3.71 49.14-4.15 49.27-17.57Q49.27-18.22 49.17-18.46 49.07-18.69 48.69-19L48.69-19 47.43-19.95 47.67-22.95 54.72-22.95 65-9.77 64.53-17.37Q64.49-18.18 64.36-18.42 64.22-18.66 63.74-18.93L63.74-18.93 61.97-20.09 62.08-22.95 70.86-22.95 71-19.48 69.26-18.73 69.12-0.31 65.21 0.99ZM79.68 0.1Q76 0.1 72.9-0.2L72.9-0.2 72.73-3.47 75.22-4.15 75.22-17.13Q75.22-18.01 75.08-18.3 74.95-18.59 74.37-18.83L74.37-18.83 72.6-19.82 72.8-22.64Q76.34-22.92 78.76-23.07 81.18-23.22 82.64-23.22L82.64-23.22Q87.34-23.22 90.19-22.13 93.03-21.04 94.34-18.69 95.65-16.34 95.65-12.46L95.65-12.46Q95.65-7.56 93.4-4.53L93.4-4.53Q91.39-1.91 88.07-0.9 84.75 0.1 79.68 0.1L79.68 0.1ZM83.97-4.77Q86.83-4.77 88.5-5.45L88.5-5.45Q88.81-6.3 89.06-8.1 89.32-9.91 89.32-11.48L89.32-11.48Q89.32-15.32 87.73-17.16 86.15-19 82.92-19L82.92-19Q82.47-19 82.1-18.97 81.72-18.93 81.38-18.9L81.38-18.9 81.38-4.94Q82.75-4.77 83.97-4.77L83.97-4.77ZM97.25 0L97.08-3.47 99.57-4.15 99.57-17.2Q99.57-18.08 99.43-18.37 99.29-18.66 98.72-18.9L98.72-18.9 97.01-19.89 97.12-22.95 115.61-22.95Q115.84-19.38 115.84-15.97L115.84-15.97 113.32-15.8 110.91-18.8 105.76-18.93 105.76-13.38 113.02-14 113.02-8.75 105.76-9.53 105.76-4.05 111.42-4.15 114.04-7.15 116.56-6.98Q116.42-3.41 116.05 0L116.05 0 97.25 0ZM118.81 0L118.64-3.47 121.12-4.15 121.12-17.13Q121.12-18.01 120.99-18.3 120.85-18.59 120.27-18.83L120.27-18.83 118.5-19.82 118.7-22.61Q123.81-23.36 128.54-23.36L128.54-23.36Q132.22-23.36 134.47-22.63 136.72-21.9 137.76-20.35 138.79-18.8 138.79-16.24L138.79-16.24Q138.79-14.13 137.7-12.55 136.61-10.96 134.61-10.11L134.61-10.11 140.05-1.33 140.02 0 133.82 0 128.78-9.09 127.28-9.13 127.28-5.31Q127.28-4.49 127.4-4.27 127.52-4.05 128-3.78L128-3.78 129.46-2.93 129.33 0 118.81 0ZM129.46-12.94Q131.27-12.94 132.12-13.28L132.12-13.28Q132.46-14.51 132.46-16.21L132.46-16.21Q132.46-17.91 131.73-18.63 131-19.34 129.29-19.34L129.29-19.34Q128.34-19.34 127.35-19.24L127.35-19.24 127.35-13.14Q128.24-12.94 129.46-12.94L129.46-12.94ZM148.87 0.41Q145.13 0.41 141.28-0.75L141.28-0.75Q141.45-4.12 141.82-7.01L141.82-7.01 144.45-7.53 146.15-4.63Q148.19-3.92 149.76-3.92L149.76-3.92Q150.3-3.92 152.07-4.22L152.07-4.22Q152.14-4.9 152.14-5.14L152.14-5.14Q152.14-5.96 151.87-6.38 151.6-6.81 150.68-7.34 149.76-7.87 147.38-8.92L147.38-8.92Q144.45-10.35 143.15-12 141.86-13.65 141.86-15.9L141.86-15.9Q141.86-19.41 144.24-21.38 146.63-23.36 150.78-23.36L150.78-23.36Q152.79-23.36 154.78-22.97 156.77-22.58 158.27-21.9L158.27-21.9Q158.2-19.99 157.97-17.16L157.97-17.16 157.86-15.7 155.38-15.32 152.79-18.63Q151.56-19 149.72-19L149.72-19Q148.57-19 147.99-18.8L147.99-18.8Q147.82-18.12 147.82-17.74L147.82-17.74Q147.82-16.99 148.19-16.43 148.57-15.87 149.52-15.27 150.47-14.68 152.35-13.79L152.35-13.79Q155.07-12.5 156.47-11.51 157.86-10.52 158.42-9.45 158.99-8.38 158.99-6.84L158.99-6.84Q158.99-3.47 156.3-1.53 153.61 0.41 148.87 0.41L148.87 0.41Z" transform="translate(-0.8500000238418579, 23.360000610351562)">
</path>
</g>
</g>
</g>
</g>
</g>
</svg>
