<svg width="124" height="26" xmlns="http://www.w3.org/2000/svg"><g fill-rule="evenodd"><path d="M3.284 10.896h3.13c2.64 0 3.882.672 3.882 2.588 0 2.406-2.33 2.69-4.011 2.69H3.284v-5.278zM.023 18.97H6.62c3.467 0 6.935-1.241 6.935-5.227 0-2.353-1.656-4.166-3.96-4.424v-.053c1.89-.568 3.184-1.939 3.184-4.01C12.78 1.917 9.933.65 7.165.65H.023v18.32zm3.26-15.525h2.691c2.459 0 3.545.776 3.545 2.355 0 1.371-1.086 2.303-3.26 2.303H3.284V3.444zM15.685 18.97h3.105V.215h-3.105zM20.866 12.759c0 3.908 3.001 6.521 6.754 6.521 3.751 0 6.752-2.613 6.752-6.521 0-3.907-3.001-6.52-6.752-6.52-3.753 0-6.754 2.613-6.754 6.52zm3.105 0c0-1.94 1.37-3.726 3.649-3.726 2.276 0 3.647 1.785 3.647 3.726s-1.37 3.726-3.647 3.726c-2.278 0-3.65-1.785-3.65-3.726zM35.776 12.759c0 3.908 3.002 6.521 6.754 6.521 3.751 0 6.753-2.613 6.753-6.521 0-3.907-3.002-6.52-6.753-6.52-3.752 0-6.754 2.613-6.754 6.52zm3.105 0c0-1.94 1.372-3.726 3.649-3.726s3.648 1.785 3.648 3.726-1.371 3.726-3.648 3.726-3.65-1.785-3.65-3.726zM51.178 6.549h2.95v1.94h.051c.544-1.163 1.734-2.25 3.804-2.25 1.915 0 3.235.75 3.882 2.303.905-1.58 2.224-2.304 4.087-2.304 3.313 0 4.477 2.355 4.477 5.33v7.401h-3.105v-7.037c0-1.553-.466-2.899-2.303-2.899-1.94 0-2.665 1.604-2.665 3.208v6.728H59.25v-7.4c0-1.527-.621-2.536-2.122-2.536-2.044 0-2.845 1.501-2.845 3.157v6.78h-3.106V6.548M72.946 18.97h2.95v-1.864h.051c.906 1.5 2.536 2.174 4.27 2.174 3.829 0 6.132-2.846 6.132-6.521 0-3.673-2.458-6.52-6.003-6.52-2.329 0-3.571 1.087-4.217 1.888h-.078V.216h-3.105v18.753zm10.298-6.211c0 1.941-1.372 3.726-3.648 3.726-2.277 0-3.649-1.785-3.649-3.726 0-1.94 1.372-3.726 3.649-3.726 2.276 0 3.648 1.785 3.648 3.726zM100.328 13.845v-.853c0-4.32-2.354-6.754-5.822-6.754-3.752 0-6.754 2.614-6.754 6.521 0 3.908 3.002 6.521 6.754 6.521 1.966 0 3.803-.7 5.252-2.485l-2.225-1.68c-.775.957-1.785 1.68-3.337 1.68-1.734 0-3.131-1.11-3.339-2.95h9.471zm-9.47-2.327c.233-1.786 1.371-2.95 3.208-2.95 1.94 0 3.131 1.138 3.156 2.95h-6.365zM102.353 6.549h3.104v1.966h.053c.672-1.422 2.043-2.277 3.674-2.277.388 0 .75.079 1.112.182v3.002c-.518-.13-1.01-.233-1.5-.233-2.924 0-3.34 2.458-3.34 3.13v6.65h-3.103V6.55M120.916 6.549v1.864h-.052c-.905-1.502-2.535-2.175-4.27-2.175-3.83 0-6.131 2.848-6.131 6.521 0 3.519 2.458 6.366 6.183 6.366 1.553 0 3.157-.595 4.063-1.811h.051v.906c0 2.458-.931 4.164-3.932 4.164-1.734 0-3.027-.646-4.27-1.785l-1.863 2.536c1.76 1.553 3.856 2.044 6.159 2.044 4.838 0 7.012-2.846 7.012-7.322V6.549h-2.95zm-3.674 2.484c2.251 0 3.674 1.501 3.674 3.648 0 2.072-1.397 3.65-3.7 3.65-2.096 0-3.648-1.63-3.648-3.597 0-2.2 1.5-3.701 3.674-3.701z"/></g></svg>