<?xml version="1.0" encoding="utf-8"?>
<!-- Generator: Adobe Illustrator 28.2.0, SVG Export Plug-In . SVG Version: 6.00 Build 0)  -->
<svg version="1.1" id="Layer_1" xmlns="http://www.w3.org/2000/svg" xmlns:xlink="http://www.w3.org/1999/xlink" x="0px" y="0px"
	 viewBox="0 0 187 31" style="enable-background:new 0 0 187 31;" xml:space="preserve">
<g>
	<g>
		<path d="M38.2,25.2v-19H46c1.8,0,3.3,0.5,4.4,1.5c1.1,1,1.7,2.3,1.7,4c0,1.2-0.4,2.3-1.1,3.2c-0.7,0.9-1.7,1.5-2.9,1.9l4,8.4h-2.3
			L46,17.1h-5.7v8.1H38.2z M45.9,8h-5.5v7.3h5.5c1.2,0,2.2-0.3,3-1c0.7-0.7,1.1-1.5,1.1-2.6c0-1.1-0.4-2-1.1-2.7
			C48.1,8.4,47.1,8,45.9,8z"/>
		<path d="M57.2,25.2v-19h13V8H59.2v6.7h7.5v1.8h-7.5v6.9h11v1.8H57.2z"/>
		<path d="M73.7,22.2l1.3-1.5c1.1,1.1,2.2,1.8,3.2,2.3c1,0.5,2.1,0.7,3.4,0.7c1.5,0,2.7-0.4,3.6-1.1c1-0.7,1.4-1.6,1.4-2.7
			c0-0.9-0.3-1.7-1-2.2c-0.6-0.5-1.7-0.9-3.3-1.2L79.3,16c-1.7-0.3-3-0.8-3.8-1.6c-0.8-0.7-1.2-1.8-1.2-3c0-1.6,0.6-2.9,1.8-3.9
			c1.2-1,2.8-1.5,4.7-1.5c1.4,0,2.7,0.2,3.9,0.6c1.2,0.4,2.4,1,3.6,1.8L87.2,10c-1-0.7-2-1.3-3.1-1.7c-1.1-0.4-2.2-0.6-3.3-0.6
			c-1.3,0-2.4,0.3-3.3,1c-0.8,0.7-1.3,1.5-1.3,2.5c0,0.8,0.3,1.5,0.8,2c0.6,0.5,1.5,0.8,2.7,1l3,0.5c2,0.4,3.5,0.9,4.4,1.8
			c0.9,0.8,1.4,1.9,1.4,3.3c0,0.8-0.2,1.6-0.5,2.3c-0.4,0.7-0.9,1.3-1.5,1.8c-0.6,0.5-1.4,0.9-2.3,1.2c-0.9,0.3-1.8,0.4-2.9,0.4
			c-1.5,0-2.9-0.3-4.1-0.8C76,24.1,74.8,23.3,73.7,22.2L73.7,22.2z"/>
		<path d="M93.6,25.2v-19h13V8H95.7v6.7h7.5v1.8h-7.5v6.9h11v1.8H93.6z"/>
		<path d="M109.9,25.2l7.5-19h2.5l7.4,19h-2.3l-2.3-6h-8.5l-2.3,6H109.9L109.9,25.2z M115.1,17.5h7.2L118.6,8L115.1,17.5z"/>
		<path d="M131.4,25.2v-19h7.8c1.8,0,3.3,0.5,4.4,1.5c1.1,1,1.7,2.3,1.7,4c0,1.2-0.4,2.3-1.1,3.2c-0.7,0.9-1.7,1.5-2.9,1.9l4,8.4
			H143l-3.9-8.1h-5.7v8.1H131.4z M139,8h-5.5v7.3h5.5c1.2,0,2.2-0.3,3-1c0.7-0.7,1.1-1.5,1.1-2.6c0-1.1-0.4-2-1.1-2.7
			C141.3,8.4,140.3,8,139,8z"/>
		<path d="M159.1,23.6c1.1,0,2.1-0.2,3.1-0.7c1-0.5,1.9-1.1,2.6-1.9l1.4,1.4c-0.9,1-2,1.8-3.2,2.3c-1.2,0.5-2.5,0.8-3.9,0.8
			c-1.4,0-2.6-0.3-3.8-0.8c-1.2-0.5-2.2-1.2-3.1-2.1c-0.9-0.9-1.5-1.9-2-3.1c-0.5-1.2-0.7-2.5-0.7-3.8c0-1.4,0.2-2.6,0.7-3.8
			c0.5-1.2,1.2-2.2,2-3.1c0.9-0.9,1.9-1.6,3.1-2.1c1.2-0.5,2.4-0.8,3.8-0.8c1.4,0,2.7,0.3,4,0.8c1.2,0.5,2.3,1.3,3.2,2.3l-1.4,1.4
			c-0.7-0.8-1.6-1.5-2.6-2c-1-0.5-2.1-0.7-3.2-0.7c-1.1,0-2.1,0.2-3,0.6c-0.9,0.4-1.7,1-2.4,1.7c-0.7,0.7-1.2,1.5-1.6,2.5
			c-0.4,1-0.6,2-0.6,3.1s0.2,2.1,0.6,3.1c0.4,1,0.9,1.8,1.6,2.5c0.7,0.7,1.5,1.3,2.4,1.7C157,23.4,158,23.6,159.1,23.6L159.1,23.6z"
			/>
		<path d="M171.3,25.2v-19h2.1v8.5h10.9V6.2h2.1v19h-2.1v-8.6h-10.9v8.6H171.3z"/>
		<path d="M15,0.7c-8.3,0-15,6.7-15,15c0,8.3,6.7,15,15,15c8.3,0,15-6.7,15-15C30,7.4,23.3,0.7,15,0.7z M15,25.3
			c-5.3,0-9.6-4.3-9.6-9.6C5.4,10.3,9.7,6,15,6c1.9,0,3.6,0.5,5.1,1.4l-1.4,2.3c-1.1-0.7-2.3-1-3.7-1c-3.9,0-7,3.1-7,7
			c0,3.9,3.1,7,7,7c3,0,5.6-2,6.6-4.7l-9.1-2.4h12.2c0,0,0,0,0,0C24.7,21,20.3,25.3,15,25.3L15,25.3z"/>
	</g>
</g>
</svg>
