<?xml version="1.0" encoding="utf-8"?>
<!-- Generator: Adobe Illustrator 19.0.0, SVG Export Plug-In . SVG Version: 6.00 Build 0)  -->
<svg version="1.1" id="GoogleLogo_x5F_FullColor_x5F_rgb_21_"
	 xmlns="http://www.w3.org/2000/svg" xmlns:xlink="http://www.w3.org/1999/xlink" x="0px" y="0px" width="309.75px"
	 height="101.46px" viewBox="0 0 309.75 101.46" enable-background="new 0 0 309.75 101.46" xml:space="preserve">
<g id="_x33_10x102px">
	<path fill="#4285F4" d="M76.19,36.18c0.34,1.84,0.5,4.01,0.5,6.35c0,8.06-2.21,18.05-9.31,25.15c-6.91,7.2-15.74,11.04-27.45,11.04
		C18.24,78.71,0,61.05,0,39.36S18.24,0,39.93,0c12,0,20.54,4.7,26.97,10.85l-7.58,7.58c-4.61-4.32-10.85-7.68-19.39-7.68
		c-15.84,0-28.22,12.77-28.22,28.61s12.38,28.61,28.22,28.61c10.27,0,16.13-4.13,19.87-7.87c3.01-3.01,5-7.31,5.81-13.16l-25.68,0
		V36.18L76.19,36.18z"/>
	<path fill="#E94235" d="M131.73,53.37c0,14.59-11.37,25.34-25.33,25.34c-13.95,0-25.32-10.75-25.32-25.34
		c0-14.69,11.37-25.34,25.32-25.34C120.35,28.03,131.73,38.69,131.73,53.37z M120.64,53.37c0-9.12-6.59-15.36-14.24-15.36
		c-7.64,0-14.24,6.24-14.24,15.36c0,9.02,6.59,15.36,14.24,15.36C114.05,68.73,120.64,62.4,120.64,53.37z"/>
	<path fill="#FABB05" d="M186.73,53.37c0,14.59-11.37,25.34-25.33,25.34c-13.95,0-25.32-10.75-25.32-25.34
		c0-14.69,11.37-25.34,25.32-25.34C175.35,28.03,186.73,38.69,186.73,53.37z M175.64,53.37c0-9.12-6.59-15.36-14.24-15.36
		c-7.65,0-14.24,6.24-14.24,15.36c0,9.02,6.59,15.36,14.24,15.36C169.05,68.73,175.64,62.4,175.64,53.37z"/>
	<path fill="#4285F4" d="M239.4,29.57v45.5c0,18.72-11.04,26.4-24.09,26.4c-12.29,0-19.68-8.26-22.46-14.97l9.7-4.03
		c1.73,4.13,5.95,9.02,12.77,9.02c8.35,0,13.54-5.18,13.54-14.88v-3.65h-0.38c-2.5,3.07-7.29,5.76-13.34,5.76
		c-12.67,0-24.21-11.04-24.21-25.25c0-14.3,11.54-25.44,24.21-25.44c6.05,0,10.85,2.69,13.34,5.66h0.38v-4.13H239.4z M229.61,53.47
		c0-8.93-6.2-15.45-13.79-15.45c-7.68,0-13.79,6.53-13.79,15.45c0,8.83,6.11,15.26,13.79,15.26
		C223.4,68.73,229.61,62.3,229.61,53.47z"/>
	<path fill="#34A853" d="M257.9,3.18v74h-11v-74H257.9z"/>
	<path fill="#E94235" d="M300.63,61.72l8.64,5.76c-2.78,4.13-9.5,11.23-21.12,11.23c-14.4,0-25.15-11.14-25.15-25.34
		c0-15.07,10.85-25.34,23.9-25.34c13.15,0,19.58,10.46,21.69,16.13l1.15,2.88l-33.89,14.01c2.59,5.09,6.62,7.68,12.29,7.68
		C293.81,68.73,297.75,65.95,300.63,61.72z M274.04,52.6l22.65-9.41c-1.25-3.17-4.99-5.38-9.41-5.38
		C281.62,37.82,273.75,42.81,274.04,52.6z"/>
</g>
</svg>
