<svg xmlns="http://www.w3.org/2000/svg" viewBox="57.93 141.48 383.14 80.16">
  <path
    fill="#e72564"
    d="M 149.702 202.031 L 133.408 179.438 C 133.408 179.438 133.408 179.438 133.408 179.438 L 107.034 142.862 C 105.694 141.014 102.599 141.014 101.267 142.862 L 74.901 179.43 C 74.901 179.43 74.901 179.43 74.901 179.43 L 58.6 202.031 C 57.938 202.954 57.753 204.132 58.1 205.211 C 58.454 206.288 59.294 207.136 60.371 207.49 L 103.038 221.458 C 103.038 221.458 103.038 221.458 103.045 221.459 C 103.4 221.574 103.769 221.635 104.147 221.635 C 104.524 221.635 104.894 221.574 105.248 221.459 C 105.248 221.459 105.248 221.459 105.255 221.459 L 147.922 207.49 C 149.001 207.136 149.847 206.296 150.194 205.211 C 150.549 204.132 150.363 202.954 149.693 202.031 L 149.702 202.031 Z M 104.154 151.017 L 121.257 174.734 L 105.263 169.497 C 105.14 169.458 105.009 169.467 104.887 169.435 C 104.763 169.405 104.639 169.389 104.517 169.374 C 104.394 169.358 104.278 169.312 104.154 169.312 C 104.032 169.312 103.916 169.358 103.793 169.374 C 103.663 169.389 103.546 169.405 103.423 169.435 C 103.3 169.458 103.169 169.458 103.054 169.497 L 87.16 174.702 L 87.06 174.734 L 104.163 151.017 L 104.154 151.017 Z M 79.991 184.528 L 98.61 178.429 L 100.597 177.783 L 100.597 213.181 L 67.216 202.246 L 79.991 184.528 Z M 107.713 213.173 L 107.713 177.783 L 128.318 184.528 L 141.092 202.238 L 107.713 213.173 Z"
  />
  <path
    d="M 180.957 206.115 L 180.957 157.744 L 200.222 157.744 Q 206.736 157.744 210.236 161.451 Q 213.736 165.159 213.736 171.604 Q 213.736 178.049 210.236 181.756 Q 206.736 185.464 200.222 185.464 L 186.778 185.464 L 186.778 206.115 Z M 186.778 180.335 L 200.222 180.335 Q 203.687 180.335 205.593 178.534 Q 207.499 176.732 207.499 173.405 L 207.499 169.802 Q 207.499 166.475 205.593 164.674 Q 203.687 162.872 200.222 162.872 L 186.778 162.872 Z"
    transform="matrix(0.996139, 0.003791, 0, 0.996139, 0.912039, -0.11966)"
    style="fill: #1e293b; paint-order: fill"
  />
  <path
    d="M 244.431 170.356 L 249.906 170.356 L 233.897 214.431 Q 233.274 216.025 232.65 217.099 Q 232.026 218.173 231.125 218.797 Q 230.224 219.421 228.873 219.698 Q 227.522 219.975 225.581 219.975 L 222.74 219.975 L 222.74 215.124 L 228.353 215.124 L 231.056 207.501 L 217.681 170.356 L 223.225 170.356 L 231.818 194.681 L 233.482 200.502 L 233.828 200.502 L 235.768 194.681 Z"
    transform="matrix(0.996139, 0.003791, 0, 0.996139, 0.912039, -0.11966)"
    style="fill: #1e293b; paint-order: fill"
  />
  <path
    d="M 279.497 200.294 L 279.22 200.294 Q 275.963 206.947 268.755 206.947 Q 265.429 206.947 262.726 205.63 Q 260.024 204.313 258.118 201.888 Q 256.212 199.462 255.207 195.997 Q 254.202 192.532 254.202 188.236 Q 254.202 183.939 255.207 180.474 Q 256.212 177.009 258.118 174.584 Q 260.024 172.158 262.726 170.841 Q 265.429 169.525 268.755 169.525 Q 272.498 169.525 275.166 171.153 Q 277.834 172.782 279.22 176.177 L 279.497 176.177 L 279.497 154.833 L 285.041 154.833 L 285.041 206.115 L 279.497 206.115 Z M 270.28 201.957 Q 272.151 201.957 273.849 201.472 Q 275.547 200.987 276.794 200.051 Q 278.042 199.116 278.769 197.764 Q 279.497 196.413 279.497 194.681 L 279.497 181.375 Q 279.497 179.92 278.769 178.638 Q 278.042 177.356 276.794 176.455 Q 275.547 175.554 273.849 175.034 Q 272.151 174.514 270.28 174.514 Q 265.568 174.514 262.865 177.459 Q 260.162 180.405 260.162 185.186 L 260.162 191.285 Q 260.162 196.067 262.865 199.012 Q 265.568 201.957 270.28 201.957 Z"
    transform="matrix(0.996139, 0.003791, 0, 0.996139, 0.912039, -0.11966)"
    style="fill: #1e293b; paint-order: fill"
  />
  <path
    d="M 322.81 206.115 Q 319.692 206.115 318.341 204.452 Q 316.989 202.789 316.643 200.294 L 316.296 200.294 Q 315.118 203.62 312.415 205.283 Q 309.713 206.947 305.971 206.947 Q 300.288 206.947 297.135 204.036 Q 293.982 201.125 293.982 196.136 Q 293.982 191.077 297.689 188.374 Q 301.397 185.672 309.228 185.672 L 316.296 185.672 L 316.296 182.137 Q 316.296 178.326 314.217 176.316 Q 312.138 174.306 307.842 174.306 Q 304.585 174.306 302.402 175.762 Q 300.219 177.217 298.763 179.642 L 295.437 176.524 Q 296.892 173.613 300.08 171.569 Q 303.268 169.525 308.119 169.525 Q 314.633 169.525 318.237 172.712 Q 321.84 175.9 321.84 181.583 L 321.84 201.264 L 325.929 201.264 L 325.929 206.115 Z M 306.871 202.234 Q 308.95 202.234 310.683 201.749 Q 312.415 201.264 313.663 200.363 Q 314.91 199.462 315.603 198.284 Q 316.296 197.106 316.296 195.72 L 316.296 189.83 L 308.95 189.83 Q 304.169 189.83 301.986 191.216 Q 299.803 192.602 299.803 195.235 L 299.803 196.69 Q 299.803 199.324 301.709 200.779 Q 303.614 202.234 306.871 202.234 Z"
    transform="matrix(0.996139, 0.003791, 0, 0.996139, 0.912039, -0.11966)"
    style="fill: #1e293b; paint-order: fill"
  />
  <path
    d="M 333.826 206.115 L 333.826 170.356 L 339.37 170.356 L 339.37 176.177 L 339.647 176.177 Q 340.964 173.128 343.355 171.326 Q 345.746 169.525 349.765 169.525 Q 355.309 169.525 358.531 173.094 Q 361.754 176.663 361.754 183.177 L 361.754 206.115 L 356.21 206.115 L 356.21 184.147 Q 356.21 174.514 348.102 174.514 Q 346.439 174.514 344.879 174.93 Q 343.32 175.346 342.073 176.177 Q 340.825 177.009 340.098 178.291 Q 339.37 179.573 339.37 181.306 L 339.37 206.115 Z"
    transform="matrix(0.996139, 0.003791, 0, 0.996139, 0.912039, -0.11966)"
    style="fill: #1e293b; paint-order: fill"
  />
  <path
    d="M 381.09 206.115 Q 378.179 206.115 376.689 204.486 Q 375.199 202.858 375.199 200.225 L 375.199 175.207 L 369.309 175.207 L 369.309 170.356 L 372.635 170.356 Q 374.437 170.356 375.095 169.629 Q 375.754 168.901 375.754 167.099 L 375.754 160.446 L 380.743 160.446 L 380.743 170.356 L 388.574 170.356 L 388.574 175.207 L 380.743 175.207 L 380.743 201.264 L 388.02 201.264 L 388.02 206.115 Z"
    transform="matrix(0.996139, 0.003791, 0, 0.996139, 0.912039, -0.11966)"
    style="fill: #1e293b; paint-order: fill"
  />
  <path
    d="M 400.283 161.971 Q 398.481 161.971 397.684 161.105 Q 396.887 160.238 396.887 158.852 L 396.887 157.952 Q 396.887 156.566 397.684 155.699 Q 398.481 154.833 400.283 154.833 Q 402.084 154.833 402.881 155.699 Q 403.678 156.566 403.678 157.952 L 403.678 158.852 Q 403.678 160.238 402.881 161.105 Q 402.084 161.971 400.283 161.971 Z M 397.511 170.356 L 403.055 170.356 L 403.055 206.115 L 397.511 206.115 Z"
    transform="matrix(0.996139, 0.003791, 0, 0.996139, 0.912039, -0.11966)"
    style="fill: #1e293b; paint-order: fill"
  />
  <path
    d="M 428.141 206.947 Q 424.399 206.947 421.419 205.63 Q 418.439 204.313 416.395 201.888 Q 414.35 199.462 413.276 195.997 Q 412.202 192.532 412.202 188.236 Q 412.202 183.939 413.276 180.474 Q 414.35 177.009 416.395 174.584 Q 418.439 172.158 421.419 170.841 Q 424.399 169.525 428.141 169.525 Q 433.477 169.525 436.7 171.846 Q 439.922 174.168 441.516 177.91 L 436.873 180.266 Q 435.903 177.494 433.685 175.97 Q 431.468 174.445 428.141 174.445 Q 425.646 174.445 423.775 175.242 Q 421.904 176.039 420.657 177.459 Q 419.409 178.88 418.786 180.855 Q 418.162 182.83 418.162 185.186 L 418.162 191.285 Q 418.162 195.997 420.691 199.012 Q 423.221 202.026 428.141 202.026 Q 434.863 202.026 437.843 195.789 L 441.863 198.492 Q 440.13 202.373 436.7 204.66 Q 433.269 206.947 428.141 206.947 Z"
    transform="matrix(0.996139, 0.003791, 0, 0.996139, 0.912039, -0.11966)"
    style="fill: #1e293b; paint-order: fill"
  />
</svg>
