<svg xmlns="http://www.w3.org/2000/svg" id="Layer_1" data-name="Layer 1" viewBox="0 0 180 24"><g><path class="cls-3" d="M63.65,23.76l-2.31-4c1.08-2.07,1.08-4.51,1.08-7.72,0-4,0-7-2.31-9.43A8.07,8.07,0,0,0,53.81,0a8.46,8.46,0,0,0-6.3,2.61C45.2,4.93,45.2,7.87,45.2,12s-.12,7,2.31,9.42a8.38,8.38,0,0,0,2.87,2,8.24,8.24,0,0,0,3.43.61,9.13,9.13,0,0,0,1.95-.24ZM50.79,18.61c-.84-1-1.08-2.08-1.08-6.61S50,6.36,50.79,5.39a4.21,4.21,0,0,1,1.34-.9,4,4,0,0,1,1.57-.32,4.09,4.09,0,0,1,1.58.32,4.17,4.17,0,0,1,1.33.9c.84,1,1.08,2.08,1.08,6.61s-.24,5.63-1.08,6.61a3.93,3.93,0,0,1-1.32.92,4.15,4.15,0,0,1-1.59.29,3.9,3.9,0,0,1-1.58-.3A4,4,0,0,1,50.79,18.61Z"></path><path class="cls-3" d="M116.83.24h4.47V23.76h-4.47Z"></path><path class="cls-3" d="M8.49,24C5,24,2.32,23.27,0,20.94L2.91,18a7.7,7.7,0,0,0,5.58,2c2.67,0,4.12-1,4.12-2.94A2.74,2.74,0,0,0,12.44,16a2.57,2.57,0,0,0-.56-.9,3.61,3.61,0,0,0-2.06-.86L7,13.85a7.43,7.43,0,0,1-4.47-2A6.46,6.46,0,0,1,1.25,9.71,6.32,6.32,0,0,1,.86,7.2C.84,3.06,3.87.12,9,.12c3.15,0,5.58.72,7.53,2.69L13.59,5.64A6.24,6.24,0,0,0,8.85,4C6.42,4,5.22,5.36,5.22,7A2.55,2.55,0,0,0,5.94,8.7a4.61,4.61,0,0,0,2.19,1l2.79.36a6.77,6.77,0,0,1,4.47,1.85,7,7,0,0,1,1.42,2.32,7.15,7.15,0,0,1,.41,2.71c0,4.51-3.87,7.09-8.74,7.09"></path><path class="cls-3" d="M23.75,23.76V.24H39.14v4H28.34V9.79h9.2V14H28.35v5.77h10.8v4H23.75"></path><path class="cls-3" d="M77.81,24c-4.74,0-8.61-3.3-8.61-8.32V.24h4.63v15.3c0,2.7,1.59,4.28,4,4.28s4-1.61,4-4.28V.24h4.47V15.66c0,5-3.72,8.32-8.46,8.32"></path><path class="cls-3" d="M107.86,21.42a8.07,8.07,0,0,1-6.3,2.6,8.36,8.36,0,0,1-6.29-2.6C93,19.09,93,16.15,93,12s-.12-7,2.32-9.42A8,8,0,0,1,101.56,0a8.64,8.64,0,0,1,6.3,2.6c2.31,2.33,2.31,5.27,2.31,9.42S110.17,19,107.86,21.42Zm-3.39-16a4.09,4.09,0,0,0-5.81,0c-.85,1-1.08,2.08-1.08,6.61s.23,5.63,1.08,6.6a4.07,4.07,0,0,0,5.81,0c.84-1,1.08-2.07,1.08-6.6S105.34,6.36,104.47,5.39Z"></path><path class="cls-3" d="M142.78,23.76l-1.33-4.16H133.2l-1.44,4.16H127L135.52.24H139l8.49,23.52ZM137.31,7.09l-2.91,8.57h5.82Z"></path><path class="cls-3" d="M174.18.24H180V6.12h-5.82Z"></path><path class="cls-3" d="M159.63,18.7V.24h-2.91V21.67Z"></path><path class="cls-3" d="M161.67,20.82l-2.91,2.94H180V20.82Z"></path><path class="cls-3" d="M165.45,12.85V.24h-2.91V15.79Z"></path><path class="cls-3" d="M167.49,14.94l-2.92,2.94H180V14.94Z"></path><path class="cls-3" d="M171.26,7V.24h-2.91V9.91Z"></path><path class="cls-3" d="M173.31,9.06,170.41,12H180V9.06Z"></path></g></svg>
